<?xml version="1.0" encoding="utf-8"?>
<svg viewBox="0 0 226 156" width="226" height="156" xmlns="http://www.w3.org/2000/svg">
  <rect style="stroke:#000; fill: rgb(229, 231, 235);" stroke-width="4" x="4" y="4" width="220" height="150" rx="16" ry="16"/>
  <g style="stroke:#000;fill:#000" transform="matrix(1, 0, 0, 1, 15, 25)">
    <path d="M 0 100 L 55 0 L 78.25 0 L 78.25 100 L 63.25 100 L 63.25 85 L 25.25 85 L 17 100 Z M 63.25 15 L 33.5 70 L 63.25 70 Z" vector-effect="non-scaling-stroke"/>
  </g>
  <g fill-rule="evenodd" style="stroke:#000;fill:#000" transform="matrix(1, 0, 0, 1, 108.25, 25)">
    <path d="M 0 100 L 0 0 L 23.5 0 L 44.5 70 L 65.5 0 L 89 0 L 89 100 L 74 100 L 74 24.5 L 56.35 85 L 32.65 85 L 15 24.5 L 15 100 Z" vector-effect="non-scaling-stroke"/>
  </g>
</svg>
